# xmcd
#
# Track frame offsets:
#	150
#	12212
#	21430
#	32380
#	42655
#	55130
#	65872
#	78942
#	91152
#	101690
#	112555
#	121312
#	131960
#	143267
#	154057
#	163862
#	176087
#	184065
#	194965
#	205420
#	213810
#	224025
#	233980
#	244415
#	254215
#	263285
#	273780
#	282585
#	291850
#	301972
#
# Disc length: 4169 seconds
#
# Revision: 1
# Processed by: cddbd v1.5.2PL0 Copyright (c) Steve Scherf et al.
# Submitted via: audiograbber 1.83.01
#
DISCID=c610471e
DTITLE=Tokens, The - All time hits
DYEAR=1900
DGENRE=Oldies
TTITLE0=The lion sleeps tonight
TTITLE1=Hear the bells
TTITLE2=ABC 1-2-3
TTITLE3=Dry your eyes
TTITLE4=Earth angel
TTITLE5="A" you're adorabel
TTITLE6=In the still of the night
TTITLE7=Tonight tonight
TTITLE8=This endless night
TTITLE9=A thousand miles away
TTITLE10=You're nothing but a girl
TTITLE11=Gee
TTITLE12=Life is but a dream
TTITLE13=The wreck of the John B.
TTITLE14=Children go where I send thee
TTITLE15=Water prayer
TTITLE16=Tonight I feel in love
TTITLE17=Please write
TTITLE18=I'll always love you
TTITLE19=I love my baby
TTITLE20=While I dream
TTITLE21=Taste of a tear
TTITLE22=Never till now
TTITLE23=Come dance with me
TTITLE24=Tonight I met an angel
TTITLE25=I'll do my crying tomorrow
TTITLE26=Dreamangle goodnight
TTITLE27=Wishing
TTITLE28=Speedo
TTITLE29=Wimoweh
EXTD=
EXTT0=
EXTT1=
EXTT2=
EXTT3=
EXTT4=
EXTT5=
EXTT6=
EXTT7=
EXTT8=
EXTT9=
EXTT10=
EXTT11=
EXTT12=
EXTT13=
EXTT14=
EXTT15=
EXTT16=
EXTT17=
EXTT18=
EXTT19=
EXTT20=
EXTT21=
EXTT22=
EXTT23=
EXTT24=
EXTT25=
EXTT26=
EXTT27=
EXTT28=
EXTT29=
PLAYORDER=
